<?xml version="1.0" standalone="no"?><!DOCTYPE svg PUBLIC "-//W3C//DTD SVG 1.1//EN" "http://www.w3.org/Graphics/SVG/1.1/DTD/svg11.dtd"><svg t="1759989302524" class="icon" viewBox="0 0 3072 1024" version="1.1" xmlns="http://www.w3.org/2000/svg" p-id="9448" xmlns:xlink="http://www.w3.org/1999/xlink" width="600" height="200"><path d="M723.7632 104.6528c-3.072 5.12-6.656 10.752-10.8544 17.1008-19.0976 28.8256-44.032 62.2592-74.0352 99.328a2053.0176 2053.0176 0 0 1-105.7792 119.552l-3.072 3.1744 2.1504-3.2256a2214.8096 2214.8096 0 0 1 91.8016-129.5872c28.6208-37.1712 55.9616-67.7376 81.2544-90.88a250.88 250.88 0 0 1 18.5344-15.4624m474.9824 470.8864c17.2032 0 26.368 1.536 30.976 2.7648 8.2432 2.304 11.264 3.84 11.9296 4.2496 3.7376 2.8672 3.7376 4.5056 3.7376 5.12 0 12.9536-6.9632 30.208-20.0704 49.9712-14.4896 21.7088-33.1776 42.496-55.5008 61.696a366.9504 366.9504 0 0 1-76.6464 50.2784c-27.2384 13.4144-54.1696 20.2752-80.0256 20.2752a237.568 237.568 0 0 1-34.6624-3.2256c-8.0384-1.2288-13.056-3.6864-14.9504-7.424-2.56-7.7824-1.4336-17.664 3.2768-29.2864a127.488 127.488 0 0 1 21.2992-36.0448 33.9456 33.9456 0 0 0 5.632-7.5264 468.48 468.48 0 0 1 98.8672-79.36c35.1744-20.8896 70.912-31.488 106.1376-31.488m814.1824-485.8368c-2.816 8.0384-8.8576 20.992-21.7088 41.3696-21.8624 34.56-51.7632 75.264-88.9856 121.088-37.4784 46.08-80.2816 95.6928-127.232 147.3024-15.1552 16.6912-30.2592 33.024-45.2608 49.0496 26.624-46.6944 51.3024-88.8832 73.728-125.952 32.9728-54.6304 63.2832-100.096 89.9584-135.0656 26.112-34.304 50.5344-59.904 72.448-76.1856 16.2816-12.032 32.0512-19.2512 47.0528-21.6064m432.1792 0c-2.7648 8.0384-8.8064 20.992-21.6576 41.3696-21.8624 34.5088-51.8144 75.264-89.088 121.088a3518.464 3518.464 0 0 1-127.1296 147.3024c-15.2064 16.6912-30.3104 33.024-45.2608 49.0496a5769.216 5769.216 0 0 1 73.6768-125.952c33.024-54.6304 63.2832-100.096 90.0096-135.0656 26.112-34.304 50.4832-59.904 72.448-76.1856 16.2304-12.032 32-19.2512 47.0016-21.6064m-104.8064 837.12c-5.12 0-10.4448-0.256-15.872-0.768-0.768-0.0512-1.1776-0.2048-1.28-0.3072l-1.3824-1.792-1.5872-1.2288c-0.3072-0.512-1.7408-3.2768-1.7408-10.752 0-17.5104 7.9872-40.96 23.6544-69.632a510.72 510.72 0 0 1 65.0752-91.136c12.3392-13.9776 25.9072-27.8016 40.192-41.1136l5.2736-4.8128 0.4096-0.4096c14.6432-13.312 30.208-26.112 46.2336-38.0928a348.3136 348.3136 0 0 1 65.3312-38.912c-3.584 9.6768-6.8096 19.968-9.8304 30.8224-8.192 29.3888-7.168 58.624 2.8672 86.8352l0.3072 0.8192 0.3584 0.768c5.2224 11.0592 12.288 21.0944 20.992 29.952-15.1552 16.4864-31.3856 32.5632-48.4352 47.9744-21.504 19.456-43.776 36.9664-66.1504 52.0704-22.1696 14.9504-44.5952 27.2384-66.7136 36.5056-20.8896 8.7552-40.3456 13.2096-57.7024 13.2096m291.7376-230.4512c1.4336-10.9056 4.3008-22.016 8.6016-32.9728a339.3024 339.3024 0 0 1 24.4224-50.4832c1.28 0.1024 2.4064 0.256 3.328 0.4096 0.1536 1.7408 0.256 4.1472 0.256 7.424 0 12.3392-4.5568 28.2624-13.5168 47.3088a372.48 372.48 0 0 1-23.552 41.984 70.7584 70.7584 0 0 1 0.512-13.6704m405.1968-47.2576a38.1952 38.1952 0 0 0-32.1536-16.9984 40.192 40.192 0 0 0-25.2416 9.216 411.1872 411.1872 0 0 1-59.136 37.7856c-23.552 12.6464-49.152 23.9104-75.9808 33.4336a495.3088 495.3088 0 0 1-82.0736 21.4528c-15.5136 2.6112-30.464 4.0448-44.544 4.1472 11.4176-18.0224 20.8896-35.6864 28.3648-52.736 11.52-26.2656 17.408-50.2784 17.408-71.3216 0-18.8416-3.3792-33.4336-10.1376-44.5952l-14.2336-23.3984-2.6624-2.048c-18.7904-14.592-43.3664-21.9648-73.0112-21.9648-50.8416 0-102.4512 14.6432-153.4976 43.52-35.2256 20.0192-68.6592 43.3664-99.4304 69.376a33.8944 33.8944 0 0 0-14.848 11.8784c-37.632 33.9456-75.776 67.7376-113.3056 100.4032-37.2736 32.4608-73.8816 61.44-108.8 86.1696-34.6624 24.576-67.7376 44.544-98.4064 59.392-29.0816 14.1312-54.784 21.248-76.3392 21.248-11.2128 0-15.36-1.3312-16.2304-1.6384a30.0032 30.0032 0 0 1-4.7104-4.2496 71.1168 71.1168 0 0 1-2.7648-15.104c-0.6144-6.0416-0.6144-17.664 3.1744-38.7072a438.784 438.784 0 0 1 19.2512-67.1232c9.6256-26.8288 23.552-59.904 41.472-98.5088 12.1856-12.032 32.9216-32.1536 60.2112-58.5728a4013.1584 4013.1584 0 0 0 103.9872-105.0624 5066.5984 5066.5984 0 0 0 119.808-129.7408 1987.4816 1987.4816 0 0 0 111.2576-135.4752c32.768-44.032 58.624-84.7872 76.8-121.2416 20.3264-40.7552 25.4976-72.704 15.6672-97.5872l-0.1024-0.2048c-3.1744-7.8336-9.1136-15.9232-18.176-24.9344C2497.9968 5.1712 2480.9472 0 2456.832 0c-32.3584 0-63.488 9.216-92.416 27.4944-27.6992 17.408-57.5488 45.568-88.7296 83.7632-30.5152 37.376-64.4608 86.8352-100.864 146.944a5287.1168 5287.1168 0 0 0-124.7232 220.5696 1807.0528 1807.0528 0 0 0-47.1552 89.7024c-13.1584 27.0336-26.0608 52.992-38.2976 77.1584l-0.1536 0.3072-1.3312 2.816c-36.9664 33.3312-74.3424 66.4576-111.2064 98.5088-37.2736 32.4608-73.8816 61.44-108.8 86.1696-34.6624 24.576-67.7888 44.544-98.4576 59.392-29.0304 14.1312-54.6816 21.248-76.288 21.248-11.264 0-15.36-1.3312-16.2304-1.6384a30.0032 30.0032 0 0 1-4.6592-4.2496 70.0416 70.0416 0 0 1-2.816-15.104c-0.6144-6.0416-0.6144-17.664 3.1744-38.7072 3.1232-17.6128 9.6256-40.192 19.2512-67.1232 9.6256-26.8288 23.552-59.904 41.472-98.5088 12.1856-11.9808 32.8704-32.1536 60.2112-58.5728a4014.08 4014.08 0 0 0 103.9872-105.0624 5071.5136 5071.5136 0 0 0 119.808-129.7408 1990.4512 1990.4512 0 0 0 111.2576-135.4752c32.768-44.032 58.624-84.7872 76.8-121.2416 20.3264-40.7552 25.4464-72.704 15.6672-97.5872l-0.1024-0.2048c-3.1744-7.8336-9.1136-15.9232-18.176-24.9344C2067.1488 5.1712 2050.048 0 2025.984 0c-32.3584 0-63.488 9.216-92.4672 27.4944-27.648 17.408-57.4976 45.568-88.6784 83.7632-30.5664 37.376-64.512 86.8352-100.864 146.944a5280.768 5280.768 0 0 0-124.7232 220.5696 1798.7584 1798.7584 0 0 0-47.2064 89.7024 5313.024 5313.024 0 0 1-38.2464 77.1584l-0.1536 0.3072-0.512 1.1264c-4.1984 3.1232-11.4176 8.8576-24.832 20.0704-17.4592 14.5408-41.5744 32.8192-71.68 54.3744-30.208 21.7088-65.8944 45.6192-105.984 71.0656a1186.304 1186.304 0 0 1-126.6176 69.7344c-44.0832 20.9408-90.1632 38.912-137.0112 53.4016a451.84 451.84 0 0 1-133.1712 21.4016c-28.3648 0-43.1104-5.12-50.688-9.9328-5.3248-7.5776-7.9872-18.1248-7.9872-31.4368 0-14.1824 3.7888-31.1296 11.264-50.3808 4.7104-11.9296 10.0352-24.064 16.0256-36.352 5.888 6.2464 12.9536 12.4416 21.1968 18.6368 19.5584 14.6432 49.1008 21.76 90.3168 21.76 37.0688 0 74.8544-8.9088 112.1792-26.4192a446.8736 446.8736 0 0 0 100.096-64.4096 394.9568 394.9568 0 0 0 74.3424-82.8416c20.224-30.8224 30.464-60.416 30.464-87.9616 0-29.8496-12.9536-54.528-38.6048-73.3696-10.0864-8.2944-23.6032-14.1824-40.2944-17.5104a268.3904 268.3904 0 0 0-51.1488-4.4544c-47.5648 0-96.4096 14.1312-145.152 41.984a586.752 586.752 0 0 0-137.728 109.056l-61.184 49.2544a2845.952 2845.952 0 0 1-100.352 80.1792 1446.0416 1446.0416 0 0 1-109.7216 76.4416c-35.7376 22.4256-70.144 40.4992-102.4 53.76-21.5552 8.8576-40.96 13.312-57.8048 13.312-5.0176 0-9.9328-0.4096-14.5408-1.2288 0.5632-1.536 1.3312-3.3792 2.304-5.4784 5.0688-11.008 12.3904-23.3472 21.76-36.7104 10.24-14.5408 20.8384-29.44 31.5904-44.288 10.6496-14.7456 21.0944-28.2624 31.0272-40.2432l0.2048-0.256 0.2048-0.256c31.4368-40.96 58.5216-79.7696 80.384-115.1488 24.6272-39.936 30.464-74.5984 17.2544-103.168-9.4208-27.5456-35.328-43.52-76.9024-47.4624a262.0416 262.0416 0 0 0-25.4464-1.28c-38.5024 0-77.056 8.8064-114.5344 26.112A3524.9152 3524.9152 0 0 0 654.336 328.704a1586.3808 1586.3808 0 0 0 92.928-112.4864c26.624-35.84 47.4112-68.608 61.7472-97.4336 16.3328-32.768 20.6848-58.624 13.312-78.9504L822.272 39.5264l-0.1536-0.3072a87.3984 87.3984 0 0 0-14.592-22.9376C798.208 5.3248 783.2576 0 761.856 0c-29.7472 0-61.44 13.2608-94.1056 39.424-30.3616 24.32-63.8976 59.392-99.6864 104.0896a2276.608 2276.608 0 0 0-116.1728 161.8944c-41.6256 62.976-88.064 135.3728-137.9328 215.1936l-38.4 59.3408a7402.3936 7402.3936 0 0 1-124.9792 191.4368A1894.5536 1894.5536 0 0 1 33.0752 928.768l-0.2048 0.256c-14.6944 18.176-12.288 40.0384 6.3488 58.4192l0.6656 0.6656 0.7168 0.512a44.7488 44.7488 0 0 0 28.16 11.1104c7.68 0 19.2-2.56 30.208-14.592l0.3072-0.3584 0.3072-0.3584c60.6208-73.9328 115.4048-136.7552 162.816-186.7776 47.0016-49.6128 89.856-89.7024 127.488-119.296 36.8128-28.928 69.9904-49.0496 98.7136-59.904 23.5008-8.8064 46.6944-13.312 68.9152-13.312 4.1984 0 8.3968 0.1536 12.544 0.512h1.3824c3.6864 0 6.5024 0.1536 8.704 0.3072a66.816 66.816 0 0 1-3.5328 8.96c-5.12 11.1616-12.4416 23.552-21.76 36.7616-9.472 13.5168-19.8144 28.0064-31.5904 44.288-10.9056 15.0528-21.504 29.2864-31.3856 42.3424a1622.7328 1622.7328 0 0 0-80.128 109.824c-24.8832 37.7344-31.9488 71.936-20.992 101.5296l0.1536 0.4608c2.9696 7.424 8.3456 15.5136 16.4352 24.7808 9.1648 10.5472 22.9888 18.3296 42.24 23.7056l0.6656 0.2048 0.7168 0.1536c6.7584 1.3312 12.544 1.9968 17.7664 1.9968h14.1824c32.5632 0 67.8912-8.2944 105.0624-24.576 35.84-15.7184 72.96-35.84 110.2848-59.904a1421.8752 1421.8752 0 0 0 98.304-69.3248c-4.096 16.896-6.144 33.1264-6.144 48.5888 0 39.1168 13.2096 70.144 39.2192 92.2112 24.576 23.9104 59.648 36.0448 104.192 36.0448 49.408 0 100.352-7.7312 151.3984-23.04a1038.336 1038.336 0 0 0 147.8656-56.9856 1209.856 1209.856 0 0 0 135.68-75.264 2461.4912 2461.4912 0 0 0 106.6496-72.2944 482.304 482.304 0 0 0-13.5168 58.7776c-3.6864 24.2688-3.8912 43.52-0.6144 59.0336 3.2256 15.2064 8.192 28.2624 14.848 38.7584 6.7584 10.5984 16.6912 20.8384 29.5936 30.3616 14.4896 10.752 35.0208 15.9232 62.6688 15.9232 59.3408 0 127.8464-27.7504 203.6224-82.4832a2177.6896 2177.6896 0 0 0 129.28-102.0416 417.8944 417.8944 0 0 0-8.5504 40.448c-3.6864 24.2688-3.8912 43.52-0.6144 59.0336 3.2256 15.2064 8.192 28.2624 14.848 38.7584 6.7584 10.5984 16.6912 20.8384 29.5936 30.3616 14.4896 10.752 35.0208 15.9232 62.6688 15.9232 59.3408 0 127.8464-27.7504 203.6224-82.4832 11.008-7.9872 22.3744-16.384 33.9968-25.2928a154.112 154.112 0 0 0-1.9456 24.064c0 18.4832 3.1232 33.3312 9.6256 45.3632 5.8368 10.8544 12.2368 19.8144 19.0464 26.5216l0.256 0.256 0.3072 0.256c17.8688 16.2816 43.9296 24.5248 77.4144 24.5248 27.8016 0 57.0368-5.9904 86.8864-17.7664a489.1136 489.1136 0 0 0 86.784-45.312c28.672-18.688 56.2688-40.448 81.8688-64.5632 22.784-21.504 44.288-43.9808 64-66.9184l0.512 0.0512c8.2944 1.024 16.2816 2.1504 23.7056 3.2256 8.0384 1.2288 17.152 1.8944 26.9824 1.8944 28.1088 0 58.2144-3.7888 89.3952-11.264 30.7712-7.2704 60.8256-16.64 89.344-27.904a694.0672 694.0672 0 0 0 79.7696-37.2224 479.5904 479.5904 0 0 0 61.7984-39.5264 40.0896 40.0896 0 0 0 15.872-28.0576 37.9904 37.9904 0 0 0-11.2128-30.0032" p-id="9449"></path></svg>